<mxfile host="app.diagrams.net" modified="2022-08-03T08:49:59.434Z" agent="5.0 (Macintosh; Intel Mac OS X 10_15_7) AppleWebKit/537.36 (KHTML, like Gecko) Chrome/103.0.0.0 Safari/537.36" etag="pTkVVkJ2kyq2R73NKnuA" version="20.2.2" type="github">
  <diagram id="K8B57EH4iwTCI3toLxyg" name="第 1 页">
    <mxGraphModel dx="1577" dy="2044" grid="1" gridSize="10" guides="1" tooltips="1" connect="1" arrows="1" fold="1" page="1" pageScale="1" pageWidth="827" pageHeight="1169" math="0" shadow="0">
      <root>
        <mxCell id="0" />
        <mxCell id="1" parent="0" />
        <mxCell id="xulJQzumZJBnUeOoIjRu-1" value="&lt;b&gt;&lt;font style=&quot;font-size: 20px&quot;&gt;Danger card title&lt;/font&gt;&lt;/b&gt;&lt;br style=&quot;font-size: 14px&quot;&gt;&lt;br style=&quot;font-size: 14px&quot;&gt;Some quick example text to build on the card title and make up the bulk of the card&#39;s content." style="html=1;shadow=0;dashed=0;shape=mxgraph.bootstrap.rrect;rSize=5;strokeColor=#DB2843;html=1;whiteSpace=wrap;fillColor=#ffffff;fontColor=#DB2843;verticalAlign=bottom;align=left;spacing=20;spacingBottom=0;fontSize=14;" vertex="1" parent="1">
          <mxGeometry x="460" y="18" width="960" height="1312" as="geometry" />
        </mxCell>
        <mxCell id="xulJQzumZJBnUeOoIjRu-2" value="" style="strokeWidth=1;shadow=0;dashed=0;align=center;html=1;shape=mxgraph.mockup.containers.browserWindow;rSize=0;strokeColor=#666666;strokeColor2=#008cff;strokeColor3=#c4c4c4;mainText=,;recursiveResize=0;" vertex="1" parent="xulJQzumZJBnUeOoIjRu-1">
          <mxGeometry x="-10.12" y="-52.238593899900444" width="970.12" height="1366.304735632184" as="geometry" />
        </mxCell>
        <mxCell id="xulJQzumZJBnUeOoIjRu-3" value="Page 1" style="strokeWidth=1;shadow=0;dashed=0;align=center;html=1;shape=mxgraph.mockup.containers.anchor;fontSize=17;fontColor=#666666;align=left;" vertex="1" parent="xulJQzumZJBnUeOoIjRu-2">
          <mxGeometry x="60.69767441860465" y="21.72471123851277" width="111.27906976744187" height="47.070207683444345" as="geometry" />
        </mxCell>
        <mxCell id="xulJQzumZJBnUeOoIjRu-4" value="https://www.draw.io" style="strokeWidth=1;shadow=0;dashed=0;align=center;html=1;shape=mxgraph.mockup.containers.anchor;rSize=0;fontSize=17;fontColor=#666666;align=left;" vertex="1" parent="xulJQzumZJBnUeOoIjRu-2">
          <mxGeometry x="131.51162790697674" y="54.30777738905222" width="252.90697674418604" height="47.070207683444345" as="geometry" />
        </mxCell>
        <mxCell id="xulJQzumZJBnUeOoIjRu-5" value="&lt;b&gt;&lt;font style=&quot;font-size: 20px&quot;&gt;Secondary card title&lt;/font&gt;&lt;/b&gt;&lt;br style=&quot;font-size: 14px&quot;&gt;&lt;br style=&quot;font-size: 14px&quot;&gt;Some quick example text to build on the card title and make up the bulk of the card&#39;s content." style="html=1;shadow=0;dashed=0;shape=mxgraph.bootstrap.rrect;rSize=5;strokeColor=#6C767D;html=1;whiteSpace=wrap;fillColor=#ffffff;fontColor=#6C767D;verticalAlign=bottom;align=left;spacing=20;spacingBottom=0;fontSize=14;" vertex="1" parent="xulJQzumZJBnUeOoIjRu-2">
          <mxGeometry x="70.12" y="205.10933333333332" width="839.88" height="271.44827586206895" as="geometry" />
        </mxCell>
        <mxCell id="xulJQzumZJBnUeOoIjRu-6" value="最新每日一题" style="html=1;shadow=0;dashed=0;shape=mxgraph.bootstrap.topButton;rSize=5;perimeter=none;whiteSpace=wrap;fillColor=#F7F7F7;strokeColor=#6C767D;fontColor=#6C767D;resizeWidth=1;fontSize=18;align=left;spacing=20;" vertex="1" parent="xulJQzumZJBnUeOoIjRu-5">
          <mxGeometry width="839.88" height="50" relative="1" as="geometry" />
        </mxCell>
        <mxCell id="xulJQzumZJBnUeOoIjRu-7" value="" style="rounded=1;whiteSpace=wrap;html=1;fontSize=31;" vertex="1" parent="xulJQzumZJBnUeOoIjRu-2">
          <mxGeometry x="80" y="528.24" width="830" height="301.76" as="geometry" />
        </mxCell>
        <mxCell id="xulJQzumZJBnUeOoIjRu-8" value="" style="shape=mxgraph.mockup.containers.marginRect;rectMarginTop=10;strokeColor=#666666;strokeWidth=1;dashed=0;rounded=1;arcSize=5;recursiveResize=0;" vertex="1" parent="xulJQzumZJBnUeOoIjRu-2">
          <mxGeometry x="120.12" y="557.9006952281435" width="150" height="265.050505050505" as="geometry" />
        </mxCell>
        <mxCell id="xulJQzumZJBnUeOoIjRu-9" value="本周每日一题&#xa;完成情况" style="shape=rect;strokeColor=none;fillColor=#008cff;strokeWidth=1;dashed=0;rounded=1;arcSize=20;fontColor=#ffffff;fontSize=17;spacing=2;spacingTop=-2;align=left;autosize=1;spacingLeft=4;resizeWidth=0;resizeHeight=0;perimeter=none;" vertex="1" parent="xulJQzumZJBnUeOoIjRu-8">
          <mxGeometry x="5" y="-13.252525252525253" width="130" height="50" as="geometry" />
        </mxCell>
        <mxCell id="xulJQzumZJBnUeOoIjRu-10" value="&lt;font style=&quot;font-size: 31px;&quot;&gt;1/20&lt;/font&gt;" style="text;html=1;strokeColor=none;fillColor=none;align=center;verticalAlign=middle;whiteSpace=wrap;rounded=0;" vertex="1" parent="xulJQzumZJBnUeOoIjRu-8">
          <mxGeometry x="45" y="112.64646464646464" width="60" height="39.75757575757576" as="geometry" />
        </mxCell>
        <mxCell id="xulJQzumZJBnUeOoIjRu-11" value="" style="shape=mxgraph.mockup.containers.marginRect;rectMarginTop=10;strokeColor=#666666;strokeWidth=1;dashed=0;rounded=1;arcSize=5;recursiveResize=0;" vertex="1" parent="xulJQzumZJBnUeOoIjRu-2">
          <mxGeometry x="340.12" y="557.9006952281435" width="150" height="265.050505050505" as="geometry" />
        </mxCell>
        <mxCell id="xulJQzumZJBnUeOoIjRu-12" value="本周CR评论数" style="shape=rect;strokeColor=none;fillColor=#008cff;strokeWidth=1;dashed=0;rounded=1;arcSize=20;fontColor=#ffffff;fontSize=17;spacing=2;spacingTop=-2;align=left;autosize=1;spacingLeft=4;resizeWidth=0;resizeHeight=0;perimeter=none;" vertex="1" parent="xulJQzumZJBnUeOoIjRu-11">
          <mxGeometry x="5" width="140" height="30" as="geometry" />
        </mxCell>
        <mxCell id="xulJQzumZJBnUeOoIjRu-13" value="&lt;font style=&quot;font-size: 31px;&quot;&gt;30&lt;/font&gt;" style="text;html=1;strokeColor=none;fillColor=none;align=center;verticalAlign=middle;whiteSpace=wrap;rounded=0;" vertex="1" parent="xulJQzumZJBnUeOoIjRu-11">
          <mxGeometry x="45" y="112.64646464646464" width="60" height="39.75757575757576" as="geometry" />
        </mxCell>
        <mxCell id="xulJQzumZJBnUeOoIjRu-14" value="" style="html=1;shadow=0;dashed=0;shape=mxgraph.bootstrap.rrect;rSize=5;strokeColor=#DFDFDF;html=1;whiteSpace=wrap;fillColor=#FFFFFF;fontColor=#000000;" vertex="1" parent="xulJQzumZJBnUeOoIjRu-2">
          <mxGeometry x="60.7" y="862.71" width="859.3" height="227.29" as="geometry" />
        </mxCell>
        <mxCell id="xulJQzumZJBnUeOoIjRu-15" value="" style="html=1;shadow=0;dashed=0;shape=mxgraph.bootstrap.topButton;strokeColor=inherit;fillColor=#F7F7F7;rSize=5;perimeter=none;whiteSpace=wrap;resizeWidth=1;align=center;spacing=20;fontSize=14;" vertex="1" parent="xulJQzumZJBnUeOoIjRu-14">
          <mxGeometry width="859.3" height="50" relative="1" as="geometry" />
        </mxCell>
        <mxCell id="xulJQzumZJBnUeOoIjRu-16" value="每日一题" style="html=1;shadow=0;dashed=0;shape=mxgraph.bootstrap.tabTop;strokeColor=#DFDFDF;fillColor=#ffffff;rSize=5;perimeter=none;whiteSpace=wrap;resizeWidth=1;align=center;spacing=20;fontSize=14;fontColor=#4B5259;" vertex="1" parent="xulJQzumZJBnUeOoIjRu-14">
          <mxGeometry width="99.9186046511628" height="40" relative="1" as="geometry">
            <mxPoint x="10" y="10" as="offset" />
          </mxGeometry>
        </mxCell>
        <mxCell id="xulJQzumZJBnUeOoIjRu-17" value="CR记录" style="strokeColor=none;fillColor=none;rSize=5;perimeter=none;whiteSpace=wrap;resizeWidth=1;align=center;spacing=20;fontSize=14;fontColor=#0085FC;" vertex="1" parent="xulJQzumZJBnUeOoIjRu-14">
          <mxGeometry width="89.9267441860465" height="40" relative="1" as="geometry">
            <mxPoint x="98" y="10" as="offset" />
          </mxGeometry>
        </mxCell>
        <mxCell id="xulJQzumZJBnUeOoIjRu-18" value="积分榜" style="strokeColor=none;fillColor=none;rSize=5;perimeter=none;whiteSpace=wrap;resizeWidth=1;align=center;spacing=20;fontSize=14;fontColor=#0085FC;fontColor=#4B5259;" vertex="1" parent="xulJQzumZJBnUeOoIjRu-14">
          <mxGeometry width="79.93488372093023" height="40" relative="1" as="geometry">
            <mxPoint x="176" y="10" as="offset" />
          </mxGeometry>
        </mxCell>
        <mxCell id="xulJQzumZJBnUeOoIjRu-19" value="" style="html=1;shadow=0;dashed=0;shape=mxgraph.bootstrap.rrect;rSize=5;strokeColor=#DFDFDF;html=1;whiteSpace=wrap;fillColor=#FFFFFF;fontColor=#000000;" vertex="1" parent="xulJQzumZJBnUeOoIjRu-14">
          <mxGeometry x="19.983720930232558" y="58.927037037037024" width="529.5686046511628" height="126.27222222222221" as="geometry" />
        </mxCell>
        <mxCell id="xulJQzumZJBnUeOoIjRu-20" value="1. Cras justo odio" style="strokeColor=inherit;fillColor=inherit;gradientColor=inherit;fontColor=inherit;html=1;shadow=0;dashed=0;shape=mxgraph.bootstrap.topButton;rSize=5;perimeter=none;whiteSpace=wrap;resizeWidth=1;align=left;spacing=10;" vertex="1" parent="xulJQzumZJBnUeOoIjRu-19">
          <mxGeometry width="529.5686046511628" height="30" relative="1" as="geometry" />
        </mxCell>
        <mxCell id="xulJQzumZJBnUeOoIjRu-21" value="2. Dapibus ac facilisis in" style="strokeColor=inherit;fillColor=inherit;gradientColor=inherit;fontColor=inherit;html=1;shadow=0;dashed=0;perimeter=none;whiteSpace=wrap;resizeWidth=1;align=left;spacing=10;" vertex="1" parent="xulJQzumZJBnUeOoIjRu-19">
          <mxGeometry width="529.5686046511628" height="30" relative="1" as="geometry">
            <mxPoint y="30" as="offset" />
          </mxGeometry>
        </mxCell>
        <mxCell id="xulJQzumZJBnUeOoIjRu-22" value="3. Morbi leo risus" style="strokeColor=inherit;fillColor=inherit;gradientColor=inherit;fontColor=inherit;html=1;shadow=0;dashed=0;perimeter=none;whiteSpace=wrap;resizeWidth=1;align=left;spacing=10;" vertex="1" parent="xulJQzumZJBnUeOoIjRu-19">
          <mxGeometry width="529.5686046511628" height="30" relative="1" as="geometry">
            <mxPoint y="60" as="offset" />
          </mxGeometry>
        </mxCell>
        <mxCell id="xulJQzumZJBnUeOoIjRu-23" value="4. Porta ac consectetur ac" style="strokeColor=inherit;fillColor=inherit;gradientColor=inherit;fontColor=inherit;html=1;shadow=0;dashed=0;perimeter=none;whiteSpace=wrap;resizeWidth=1;align=left;spacing=10;" vertex="1" parent="xulJQzumZJBnUeOoIjRu-19">
          <mxGeometry width="529.5686046511628" height="30" relative="1" as="geometry">
            <mxPoint y="90" as="offset" />
          </mxGeometry>
        </mxCell>
        <mxCell id="xulJQzumZJBnUeOoIjRu-24" value="5. Vestibulum at eros" style="strokeColor=inherit;fillColor=inherit;gradientColor=inherit;fontColor=inherit;html=1;shadow=0;dashed=0;shape=mxgraph.bootstrap.bottomButton;rSize=5;perimeter=none;whiteSpace=wrap;resizeWidth=1;resizeHeight=0;align=left;spacing=10;" vertex="1" parent="xulJQzumZJBnUeOoIjRu-19">
          <mxGeometry y="1" width="529.5686046511628" height="30" relative="1" as="geometry">
            <mxPoint y="-30" as="offset" />
          </mxGeometry>
        </mxCell>
        <mxCell id="xulJQzumZJBnUeOoIjRu-25" value="详情" style="html=1;shadow=0;dashed=0;shape=mxgraph.bootstrap.rrect;rSize=5;strokeColor=none;strokeWidth=1;fillColor=none;fontColor=#0085FC;whiteSpace=wrap;align=center;verticalAlign=middle;spacingLeft=0;fontStyle=0;fontSize=16;spacing=5;" vertex="1" parent="xulJQzumZJBnUeOoIjRu-19">
          <mxGeometry x="409.6662790697674" y="8.418148148148147" width="59.95116279069767" height="8.418148148148147" as="geometry" />
        </mxCell>
        <mxCell id="xulJQzumZJBnUeOoIjRu-26" value="详情" style="html=1;shadow=0;dashed=0;shape=mxgraph.bootstrap.rrect;rSize=5;strokeColor=none;strokeWidth=1;fillColor=none;fontColor=#0085FC;whiteSpace=wrap;align=center;verticalAlign=middle;spacingLeft=0;fontStyle=0;fontSize=16;spacing=5;" vertex="1" parent="xulJQzumZJBnUeOoIjRu-19">
          <mxGeometry x="409.6662790697674" y="109.43592592592594" width="59.95116279069767" height="8.418148148148147" as="geometry" />
        </mxCell>
        <mxCell id="xulJQzumZJBnUeOoIjRu-27" value="详情" style="html=1;shadow=0;dashed=0;shape=mxgraph.bootstrap.rrect;rSize=5;strokeColor=none;strokeWidth=1;fillColor=none;fontColor=#0085FC;whiteSpace=wrap;align=center;verticalAlign=middle;spacingLeft=0;fontStyle=0;fontSize=16;spacing=5;" vertex="1" parent="xulJQzumZJBnUeOoIjRu-19">
          <mxGeometry x="409.6662790697674" y="85.0232962962963" width="59.95116279069767" height="8.418148148148147" as="geometry" />
        </mxCell>
        <mxCell id="xulJQzumZJBnUeOoIjRu-28" value="详情" style="html=1;shadow=0;dashed=0;shape=mxgraph.bootstrap.rrect;rSize=5;strokeColor=none;strokeWidth=1;fillColor=none;fontColor=#0085FC;whiteSpace=wrap;align=center;verticalAlign=middle;spacingLeft=0;fontStyle=0;fontSize=16;spacing=5;" vertex="1" parent="xulJQzumZJBnUeOoIjRu-19">
          <mxGeometry x="409.6662790697674" y="58.927037037037024" width="59.95116279069767" height="8.418148148148147" as="geometry" />
        </mxCell>
        <mxCell id="xulJQzumZJBnUeOoIjRu-29" value="详情" style="html=1;shadow=0;dashed=0;shape=mxgraph.bootstrap.rrect;rSize=5;strokeColor=none;strokeWidth=1;fillColor=none;fontColor=#0085FC;whiteSpace=wrap;align=center;verticalAlign=middle;spacingLeft=0;fontStyle=0;fontSize=16;spacing=5;" vertex="1" parent="xulJQzumZJBnUeOoIjRu-19">
          <mxGeometry x="409.6662790697674" y="33.672592592592586" width="59.95116279069767" height="8.418148148148147" as="geometry" />
        </mxCell>
        <mxCell id="xulJQzumZJBnUeOoIjRu-30" value="" style="shape=mxgraph.mockup.containers.marginRect;rectMarginTop=10;strokeColor=#666666;strokeWidth=1;dashed=0;rounded=1;arcSize=5;recursiveResize=0;" vertex="1" parent="xulJQzumZJBnUeOoIjRu-2">
          <mxGeometry x="580.12" y="557.9006952281435" width="150" height="265.050505050505" as="geometry" />
        </mxCell>
        <mxCell id="xulJQzumZJBnUeOoIjRu-31" value="积分排名" style="shape=rect;strokeColor=none;fillColor=#008cff;strokeWidth=1;dashed=0;rounded=1;arcSize=20;fontColor=#ffffff;fontSize=17;spacing=2;spacingTop=-2;align=left;autosize=1;spacingLeft=4;resizeWidth=0;resizeHeight=0;perimeter=none;" vertex="1" parent="xulJQzumZJBnUeOoIjRu-30">
          <mxGeometry x="5" width="90" height="30" as="geometry" />
        </mxCell>
        <mxCell id="xulJQzumZJBnUeOoIjRu-32" value="&lt;font style=&quot;font-size: 31px;&quot;&gt;1&lt;/font&gt;" style="text;html=1;strokeColor=none;fillColor=none;align=center;verticalAlign=middle;whiteSpace=wrap;rounded=0;" vertex="1" parent="xulJQzumZJBnUeOoIjRu-30">
          <mxGeometry x="45" y="112.64646464646464" width="60" height="39.75757575757576" as="geometry" />
        </mxCell>
        <mxCell id="xulJQzumZJBnUeOoIjRu-33" value="" style="html=1;shadow=0;dashed=0;shape=mxgraph.bootstrap.rrect;rSize=5;strokeColor=#DFDFDF;html=1;whiteSpace=wrap;fillColor=#FFFFFF;fontColor=#000000;fontSize=31;" vertex="1" parent="xulJQzumZJBnUeOoIjRu-2">
          <mxGeometry x="55.120000000000005" y="1114.24" width="869.88" height="205.99859389990047" as="geometry" />
        </mxCell>
        <mxCell id="xulJQzumZJBnUeOoIjRu-34" value="常用应用" style="html=1;shadow=0;dashed=0;shape=mxgraph.bootstrap.topButton;strokeColor=inherit;fillColor=#F7F7F7;rSize=5;perimeter=none;whiteSpace=wrap;resizeWidth=1;align=left;spacing=20;fontSize=14;" vertex="1" parent="xulJQzumZJBnUeOoIjRu-33">
          <mxGeometry width="869.88" height="40" relative="1" as="geometry" />
        </mxCell>
        <mxCell id="xulJQzumZJBnUeOoIjRu-35" value="" style="verticalLabelPosition=bottom;shadow=0;dashed=0;align=center;html=1;verticalAlign=top;strokeWidth=1;shape=mxgraph.mockup.graphics.simpleIcon;strokeColor=#999999;fontSize=31;" vertex="1" parent="xulJQzumZJBnUeOoIjRu-33">
          <mxGeometry x="92" y="77.99859389990047" width="50" height="50" as="geometry" />
        </mxCell>
        <mxCell id="xulJQzumZJBnUeOoIjRu-36" value="考勤助手" style="html=1;shadow=0;dashed=0;shape=mxgraph.bootstrap.rrect;rSize=5;strokeColor=none;strokeWidth=1;fillColor=none;fontColor=#0085FC;whiteSpace=wrap;align=center;verticalAlign=middle;spacingLeft=0;fontStyle=0;fontSize=16;spacing=5;" vertex="1" parent="xulJQzumZJBnUeOoIjRu-33">
          <mxGeometry x="80" y="145" width="80" height="40" as="geometry" />
        </mxCell>
        <mxCell id="xulJQzumZJBnUeOoIjRu-37" value="" style="verticalLabelPosition=bottom;shadow=0;dashed=0;align=center;html=1;verticalAlign=top;strokeWidth=1;shape=mxgraph.mockup.graphics.simpleIcon;strokeColor=#999999;fontSize=31;" vertex="1" parent="xulJQzumZJBnUeOoIjRu-33">
          <mxGeometry x="247" y="77.99859389990047" width="50" height="50" as="geometry" />
        </mxCell>
        <mxCell id="xulJQzumZJBnUeOoIjRu-38" value="考勤助手" style="html=1;shadow=0;dashed=0;shape=mxgraph.bootstrap.rrect;rSize=5;strokeColor=none;strokeWidth=1;fillColor=none;fontColor=#0085FC;whiteSpace=wrap;align=center;verticalAlign=middle;spacingLeft=0;fontStyle=0;fontSize=16;spacing=5;" vertex="1" parent="xulJQzumZJBnUeOoIjRu-33">
          <mxGeometry x="235" y="145" width="80" height="40" as="geometry" />
        </mxCell>
        <mxCell id="xulJQzumZJBnUeOoIjRu-39" value="" style="verticalLabelPosition=bottom;shadow=0;dashed=0;align=center;html=1;verticalAlign=top;strokeWidth=1;shape=mxgraph.mockup.graphics.simpleIcon;strokeColor=#999999;fontSize=31;" vertex="1" parent="xulJQzumZJBnUeOoIjRu-33">
          <mxGeometry x="387" y="77.99859389990047" width="50" height="50" as="geometry" />
        </mxCell>
        <mxCell id="xulJQzumZJBnUeOoIjRu-40" value="考勤助手" style="html=1;shadow=0;dashed=0;shape=mxgraph.bootstrap.rrect;rSize=5;strokeColor=none;strokeWidth=1;fillColor=none;fontColor=#0085FC;whiteSpace=wrap;align=center;verticalAlign=middle;spacingLeft=0;fontStyle=0;fontSize=16;spacing=5;" vertex="1" parent="xulJQzumZJBnUeOoIjRu-33">
          <mxGeometry x="375" y="145" width="80" height="40" as="geometry" />
        </mxCell>
      </root>
    </mxGraphModel>
  </diagram>
</mxfile>
